<?xml version="1.0" encoding="UTF-8" standalone="no"?><svg xmlns="http://www.w3.org/2000/svg" xmlns:xlink="http://www.w3.org/1999/xlink" clip-rule="evenodd" stroke-miterlimit="4.00" viewBox="0 0 1024 768"><desc>SVG generated by Keynote</desc><defs></defs><g transform="matrix(1.00, 0.00, -0.00, -1.00, 0.0, 768.0)"><path d="M 0.0 768.0 L 1024.0 768.0 L 1024.0 0.0 L 0.0 0.0 Z M 0.0 768.0 " fill="#FEFFFF"></path><text xml:space="preserve" font-family="Helvetica-Light" font-size="36.0" fill="#000000" transform="matrix(1.00, 0.00, -0.00, -1.00, 208.0, 443.0)">A</text><text xml:space="preserve" font-family="Helvetica-Light" font-size="36.0" fill="#000000" transform="matrix(1.00, 0.00, -0.00, -1.00, 232.0, 443.0)">d</text><text xml:space="preserve" font-family="Helvetica-Light" font-size="36.0" fill="#000000" transform="matrix(1.00, 0.00, -0.00, -1.00, 254.0, 443.0)">d</text><text xml:space="preserve" font-family="Helvetica-Light" font-size="36.0" fill="#000000" transform="matrix(1.00, 0.00, -0.00, -1.00, 276.0, 443.0)"> </text><text xml:space="preserve" font-family="Helvetica-Light" font-size="36.0" fill="#000000" transform="matrix(1.00, 0.00, -0.00, -1.00, 286.0, 443.0)">t</text><text xml:space="preserve" font-family="Helvetica-Light" font-size="36.0" fill="#000000" transform="matrix(1.00, 0.00, -0.00, -1.00, 296.0, 443.0)">h</text><text xml:space="preserve" font-family="Helvetica-Light" font-size="36.0" fill="#000000" transform="matrix(1.00, 0.00, -0.00, -1.00, 316.0, 443.0)">e</text><text xml:space="preserve" font-family="Helvetica-Light" font-size="36.0" fill="#000000" transform="matrix(1.00, 0.00, -0.00, -1.00, 336.1, 443.0)"> </text><text xml:space="preserve" font-family="Helvetica-Light" font-size="36.0" fill="#000000" transform="matrix(1.00, 0.00, -0.00, -1.00, 346.1, 443.0)">f</text><text xml:space="preserve" font-family="Helvetica-Light" font-size="36.0" fill="#000000" transform="matrix(1.00, 0.00, -0.00, -1.00, 356.1, 443.0)">o</text><text xml:space="preserve" font-family="Helvetica-Light" font-size="36.0" fill="#000000" transform="matrix(1.00, 0.00, -0.00, -1.00, 376.1, 443.0)">l</text><text xml:space="preserve" font-family="Helvetica-Light" font-size="36.0" fill="#000000" transform="matrix(1.00, 0.00, -0.00, -1.00, 384.1, 443.0)">l</text><text xml:space="preserve" font-family="Helvetica-Light" font-size="36.0" fill="#000000" transform="matrix(1.00, 0.00, -0.00, -1.00, 392.1, 443.0)">o</text><text xml:space="preserve" font-family="Helvetica-Light" font-size="36.0" fill="#000000" transform="matrix(1.00, 0.00, -0.00, -1.00, 412.1, 443.0)">w</text><text xml:space="preserve" font-family="Helvetica-Light" font-size="36.0" fill="#000000" transform="matrix(1.00, 0.00, -0.00, -1.00, 438.1, 443.0)">i</text><text xml:space="preserve" font-family="Helvetica-Light" font-size="36.0" fill="#000000" transform="matrix(1.00, 0.00, -0.00, -1.00, 446.1, 443.0)">n</text><text xml:space="preserve" font-family="Helvetica-Light" font-size="36.0" fill="#000000" transform="matrix(1.00, 0.00, -0.00, -1.00, 466.1, 443.0)">g</text><text xml:space="preserve" font-family="Helvetica-Light" font-size="36.0" fill="#000000" transform="matrix(1.00, 0.00, -0.00, -1.00, 488.1, 443.0)"> </text><text xml:space="preserve" font-family="Helvetica-Light" font-size="36.0" fill="#000000" transform="matrix(1.00, 0.00, -0.00, -1.00, 498.1, 443.0)">t</text><text xml:space="preserve" font-family="Helvetica-Light" font-size="36.0" fill="#000000" transform="matrix(1.00, 0.00, -0.00, -1.00, 508.1, 443.0)">o</text><text xml:space="preserve" font-family="Helvetica-Light" font-size="36.0" fill="#000000" transform="matrix(1.00, 0.00, -0.00, -1.00, 528.1, 443.0)"> </text><text xml:space="preserve" font-family="Helvetica-Light" font-size="36.0" fill="#000000" transform="matrix(1.00, 0.00, -0.00, -1.00, 538.1, 443.0)">y</text><text xml:space="preserve" font-family="Helvetica-Light" font-size="36.0" fill="#000000" transform="matrix(1.00, 0.00, -0.00, -1.00, 556.1, 443.0)">o</text><text xml:space="preserve" font-family="Helvetica-Light" font-size="36.0" fill="#000000" transform="matrix(1.00, 0.00, -0.00, -1.00, 576.1, 443.0)">u</text><text xml:space="preserve" font-family="Helvetica-Light" font-size="36.0" fill="#000000" transform="matrix(1.00, 0.00, -0.00, -1.00, 596.2, 443.0)">r</text><text xml:space="preserve" font-family="Helvetica-Light" font-size="36.0" fill="#000000" transform="matrix(1.00, 0.00, -0.00, -1.00, 608.1, 443.0)"> </text><text xml:space="preserve" font-family="Helvetica-Light" font-size="36.0" fill="#00872A" transform="matrix(1.00, 0.00, -0.00, -1.00, 618.1, 443.0)">i</text><text xml:space="preserve" font-family="Helvetica-Light" font-size="36.0" fill="#00872A" transform="matrix(1.00, 0.00, -0.00, -1.00, 626.1, 443.0)">n</text><text xml:space="preserve" font-family="Helvetica-Light" font-size="36.0" fill="#00872A" transform="matrix(1.00, 0.00, -0.00, -1.00, 646.2, 443.0)">d</text><text xml:space="preserve" font-family="Helvetica-Light" font-size="36.0" fill="#00872A" transform="matrix(1.00, 0.00, -0.00, -1.00, 668.2, 443.0)">e</text><text xml:space="preserve" font-family="Helvetica-Light" font-size="36.0" fill="#00872A" transform="matrix(1.00, 0.00, -0.00, -1.00, 688.2, 443.0)">x</text><text xml:space="preserve" font-family="Helvetica-Light" font-size="36.0" fill="#00872A" transform="matrix(1.00, 0.00, -0.00, -1.00, 706.2, 443.0)">.</text><text xml:space="preserve" font-family="Helvetica-Light" font-size="36.0" fill="#00872A" transform="matrix(1.00, 0.00, -0.00, -1.00, 716.2, 443.0)">h</text><text xml:space="preserve" font-family="Helvetica-Light" font-size="36.0" fill="#00872A" transform="matrix(1.00, 0.00, -0.00, -1.00, 736.2, 443.0)">t</text><text xml:space="preserve" font-family="Helvetica-Light" font-size="36.0" fill="#00872A" transform="matrix(1.00, 0.00, -0.00, -1.00, 746.2, 443.0)">m</text><text xml:space="preserve" font-family="Helvetica-Light" font-size="36.0" fill="#00872A" transform="matrix(1.00, 0.00, -0.00, -1.00, 776.2, 443.0)">l</text><text xml:space="preserve" font-family="Helvetica-Light" font-size="36.0" fill="#000000" transform="matrix(1.00, 0.00, -0.00, -1.00, 784.2, 443.0)">:</text><text xml:space="preserve" font-family="Helvetica-Light" font-size="36.0" fill="#000000" transform="matrix(1.00, 0.00, -0.00, -1.00, 794.2, 443.0)"> </text><text xml:space="preserve" font-family="CourierNewPSMT" font-size="26.0" fill="#000000" transform="matrix(1.00, 0.00, -0.00, -1.00, 19.0, 318.0)">&lt;</text><text xml:space="preserve" font-family="CourierNewPSMT" font-size="26.0" fill="#000000" transform="matrix(1.00, 0.00, -0.00, -1.00, 34.6, 318.0)">s</text><text xml:space="preserve" font-family="CourierNewPSMT" font-size="26.0" fill="#000000" transform="matrix(1.00, 0.00, -0.00, -1.00, 50.2, 318.0)">c</text><text xml:space="preserve" font-family="CourierNewPSMT" font-size="26.0" fill="#000000" transform="matrix(1.00, 0.00, -0.00, -1.00, 65.8, 318.0)">r</text><text xml:space="preserve" font-family="CourierNewPSMT" font-size="26.0" fill="#000000" transform="matrix(1.00, 0.00, -0.00, -1.00, 81.4, 318.0)">i</text><text xml:space="preserve" font-family="CourierNewPSMT" font-size="26.0" fill="#000000" transform="matrix(1.00, 0.00, -0.00, -1.00, 97.0, 318.0)">p</text><text xml:space="preserve" font-family="CourierNewPSMT" font-size="26.0" fill="#000000" transform="matrix(1.00, 0.00, -0.00, -1.00, 112.6, 318.0)">t</text><text xml:space="preserve" font-family="CourierNewPSMT" font-size="26.0" fill="#000000" transform="matrix(1.00, 0.00, -0.00, -1.00, 128.2, 318.0)"> </text><text xml:space="preserve" font-family="CourierNewPSMT" font-size="26.0" fill="#000000" transform="matrix(1.00, 0.00, -0.00, -1.00, 143.8, 318.0)">t</text><text xml:space="preserve" font-family="CourierNewPSMT" font-size="26.0" fill="#000000" transform="matrix(1.00, 0.00, -0.00, -1.00, 159.4, 318.0)">y</text><text xml:space="preserve" font-family="CourierNewPSMT" font-size="26.0" fill="#000000" transform="matrix(1.00, 0.00, -0.00, -1.00, 175.1, 318.0)">p</text><text xml:space="preserve" font-family="CourierNewPSMT" font-size="26.0" fill="#000000" transform="matrix(1.00, 0.00, -0.00, -1.00, 190.7, 318.0)">e</text><text xml:space="preserve" font-family="CourierNewPSMT" font-size="26.0" fill="#000000" transform="matrix(1.00, 0.00, -0.00, -1.00, 206.3, 318.0)">=</text><text xml:space="preserve" font-family="CourierNewPSMT" font-size="26.0" fill="#CC1C00" transform="matrix(1.00, 0.00, -0.00, -1.00, 221.8, 318.0)">"</text><text xml:space="preserve" font-family="CourierNewPSMT" font-size="26.0" fill="#CC1C00" transform="matrix(1.00, 0.00, -0.00, -1.00, 237.4, 318.0)">t</text><text xml:space="preserve" font-family="CourierNewPSMT" font-size="26.0" fill="#CC1C00" transform="matrix(1.00, 0.00, -0.00, -1.00, 253.0, 318.0)">e</text><text xml:space="preserve" font-family="CourierNewPSMT" font-size="26.0" fill="#CC1C00" transform="matrix(1.00, 0.00, -0.00, -1.00, 268.6, 318.0)">x</text><text xml:space="preserve" font-family="CourierNewPSMT" font-size="26.0" fill="#CC1C00" transform="matrix(1.00, 0.00, -0.00, -1.00, 284.3, 318.0)">t</text><text xml:space="preserve" font-family="CourierNewPSMT" font-size="26.0" fill="#CC1C00" transform="matrix(1.00, 0.00, -0.00, -1.00, 299.9, 318.0)">/</text><text xml:space="preserve" font-family="CourierNewPSMT" font-size="26.0" fill="#CC1C00" transform="matrix(1.00, 0.00, -0.00, -1.00, 315.5, 318.0)">j</text><text xml:space="preserve" font-family="CourierNewPSMT" font-size="26.0" fill="#CC1C00" transform="matrix(1.00, 0.00, -0.00, -1.00, 331.1, 318.0)">a</text><text xml:space="preserve" font-family="CourierNewPSMT" font-size="26.0" fill="#CC1C00" transform="matrix(1.00, 0.00, -0.00, -1.00, 346.7, 318.0)">v</text><text xml:space="preserve" font-family="CourierNewPSMT" font-size="26.0" fill="#CC1C00" transform="matrix(1.00, 0.00, -0.00, -1.00, 362.3, 318.0)">a</text><text xml:space="preserve" font-family="CourierNewPSMT" font-size="26.0" fill="#CC1C00" transform="matrix(1.00, 0.00, -0.00, -1.00, 377.9, 318.0)">s</text><text xml:space="preserve" font-family="CourierNewPSMT" font-size="26.0" fill="#CC1C00" transform="matrix(1.00, 0.00, -0.00, -1.00, 393.5, 318.0)">c</text><text xml:space="preserve" font-family="CourierNewPSMT" font-size="26.0" fill="#CC1C00" transform="matrix(1.00, 0.00, -0.00, -1.00, 409.1, 318.0)">r</text><text xml:space="preserve" font-family="CourierNewPSMT" font-size="26.0" fill="#CC1C00" transform="matrix(1.00, 0.00, -0.00, -1.00, 424.7, 318.0)">i</text><text xml:space="preserve" font-family="CourierNewPSMT" font-size="26.0" fill="#CC1C00" transform="matrix(1.00, 0.00, -0.00, -1.00, 440.3, 318.0)">p</text><text xml:space="preserve" font-family="CourierNewPSMT" font-size="26.0" fill="#CC1C00" transform="matrix(1.00, 0.00, -0.00, -1.00, 455.9, 318.0)">t</text><text xml:space="preserve" font-family="CourierNewPSMT" font-size="26.0" fill="#CC1C00" transform="matrix(1.00, 0.00, -0.00, -1.00, 471.5, 318.0)">"</text><text xml:space="preserve" font-family="CourierNewPSMT" font-size="26.0" fill="#000000" transform="matrix(1.00, 0.00, -0.00, -1.00, 487.1, 318.0)"> </text><text xml:space="preserve" font-family="CourierNewPSMT" font-size="26.0" fill="#000000" transform="matrix(1.00, 0.00, -0.00, -1.00, 502.7, 318.0)">s</text><text xml:space="preserve" font-family="CourierNewPSMT" font-size="26.0" fill="#000000" transform="matrix(1.00, 0.00, -0.00, -1.00, 518.3, 318.0)">r</text><text xml:space="preserve" font-family="CourierNewPSMT" font-size="26.0" fill="#000000" transform="matrix(1.00, 0.00, -0.00, -1.00, 533.9, 318.0)">c</text><text xml:space="preserve" font-family="CourierNewPSMT" font-size="26.0" fill="#000000" transform="matrix(1.00, 0.00, -0.00, -1.00, 549.5, 318.0)">=</text><text xml:space="preserve" font-family="CourierNewPSMT" font-size="26.0" fill="#CC1C00" transform="matrix(1.00, 0.00, -0.00, -1.00, 565.1, 318.0)">"</text><text xml:space="preserve" font-family="CourierNewPSMT" font-size="26.0" fill="#CC1C00" transform="matrix(1.00, 0.00, -0.00, -1.00, 580.7, 318.0)">h</text><text xml:space="preserve" font-family="CourierNewPSMT" font-size="26.0" fill="#CC1C00" transform="matrix(1.00, 0.00, -0.00, -1.00, 596.3, 318.0)">t</text><text xml:space="preserve" font-family="CourierNewPSMT" font-size="26.0" fill="#CC1C00" transform="matrix(1.00, 0.00, -0.00, -1.00, 611.9, 318.0)">t</text><text xml:space="preserve" font-family="CourierNewPSMT" font-size="26.0" fill="#CC1C00" transform="matrix(1.00, 0.00, -0.00, -1.00, 627.5, 318.0)">p</text><text xml:space="preserve" font-family="CourierNewPSMT" font-size="26.0" fill="#CC1C00" transform="matrix(1.00, 0.00, -0.00, -1.00, 643.1, 318.0)">:</text><text xml:space="preserve" font-family="CourierNewPSMT" font-size="26.0" fill="#CC1C00" transform="matrix(1.00, 0.00, -0.00, -1.00, 658.7, 318.0)">/</text><text xml:space="preserve" font-family="CourierNewPSMT" font-size="26.0" fill="#CC1C00" transform="matrix(1.00, 0.00, -0.00, -1.00, 674.3, 318.0)">/</text><text xml:space="preserve" font-family="CourierNewPSMT" font-size="26.0" fill="#CC1C00" transform="matrix(1.00, 0.00, -0.00, -1.00, 689.9, 318.0)">a</text><text xml:space="preserve" font-family="CourierNewPSMT" font-size="26.0" fill="#CC1C00" transform="matrix(1.00, 0.00, -0.00, -1.00, 705.5, 318.0)">j</text><text xml:space="preserve" font-family="CourierNewPSMT" font-size="26.0" fill="#CC1C00" transform="matrix(1.00, 0.00, -0.00, -1.00, 721.1, 318.0)">a</text><text xml:space="preserve" font-family="CourierNewPSMT" font-size="26.0" fill="#CC1C00" transform="matrix(1.00, 0.00, -0.00, -1.00, 736.7, 318.0)">x</text><text xml:space="preserve" font-family="CourierNewPSMT" font-size="26.0" fill="#CC1C00" transform="matrix(1.00, 0.00, -0.00, -1.00, 752.4, 318.0)">.</text><text xml:space="preserve" font-family="CourierNewPSMT" font-size="26.0" fill="#CC1C00" transform="matrix(1.00, 0.00, -0.00, -1.00, 768.0, 318.0)">g</text><text xml:space="preserve" font-family="CourierNewPSMT" font-size="26.0" fill="#CC1C00" transform="matrix(1.00, 0.00, -0.00, -1.00, 783.6, 318.0)">o</text><text xml:space="preserve" font-family="CourierNewPSMT" font-size="26.0" fill="#CC1C00" transform="matrix(1.00, 0.00, -0.00, -1.00, 799.2, 318.0)">o</text><text xml:space="preserve" font-family="CourierNewPSMT" font-size="26.0" fill="#CC1C00" transform="matrix(1.00, 0.00, -0.00, -1.00, 814.8, 318.0)">g</text><text xml:space="preserve" font-family="CourierNewPSMT" font-size="26.0" fill="#CC1C00" transform="matrix(1.00, 0.00, -0.00, -1.00, 830.4, 318.0)">l</text><text xml:space="preserve" font-family="CourierNewPSMT" font-size="26.0" fill="#CC1C00" transform="matrix(1.00, 0.00, -0.00, -1.00, 846.0, 318.0)">e</text><text xml:space="preserve" font-family="CourierNewPSMT" font-size="26.0" fill="#CC1C00" transform="matrix(1.00, 0.00, -0.00, -1.00, 861.6, 318.0)">a</text><text xml:space="preserve" font-family="CourierNewPSMT" font-size="26.0" fill="#CC1C00" transform="matrix(1.00, 0.00, -0.00, -1.00, 877.2, 318.0)">p</text><text xml:space="preserve" font-family="CourierNewPSMT" font-size="26.0" fill="#CC1C00" transform="matrix(1.00, 0.00, -0.00, -1.00, 892.8, 318.0)">i</text><text xml:space="preserve" font-family="CourierNewPSMT" font-size="26.0" fill="#CC1C00" transform="matrix(1.00, 0.00, -0.00, -1.00, 908.4, 318.0)">s</text><text xml:space="preserve" font-family="CourierNewPSMT" font-size="26.0" fill="#CC1C00" transform="matrix(1.00, 0.00, -0.00, -1.00, 924.0, 318.0)">.</text><text xml:space="preserve" font-family="CourierNewPSMT" font-size="26.0" fill="#CC1C00" transform="matrix(1.00, 0.00, -0.00, -1.00, 939.6, 318.0)">c</text><text xml:space="preserve" font-family="CourierNewPSMT" font-size="26.0" fill="#CC1C00" transform="matrix(1.00, 0.00, -0.00, -1.00, 955.2, 318.0)">o</text><text xml:space="preserve" font-family="CourierNewPSMT" font-size="26.0" fill="#CC1C00" transform="matrix(1.00, 0.00, -0.00, -1.00, 970.8, 318.0)">m</text><text xml:space="preserve" font-family="CourierNewPSMT" font-size="26.0" fill="#CC1C00" transform="matrix(1.00, 0.00, -0.00, -1.00, 986.4, 318.0)">/</text><text xml:space="preserve" font-family="CourierNewPSMT" font-size="26.0" fill="#CC1C00" transform="matrix(1.00, 0.00, -0.00, -1.00, 19.0, 288.0)">a</text><text xml:space="preserve" font-family="CourierNewPSMT" font-size="26.0" fill="#CC1C00" transform="matrix(1.00, 0.00, -0.00, -1.00, 34.6, 288.0)">j</text><text xml:space="preserve" font-family="CourierNewPSMT" font-size="26.0" fill="#CC1C00" transform="matrix(1.00, 0.00, -0.00, -1.00, 50.2, 288.0)">a</text><text xml:space="preserve" font-family="CourierNewPSMT" font-size="26.0" fill="#CC1C00" transform="matrix(1.00, 0.00, -0.00, -1.00, 65.8, 288.0)">x</text><text xml:space="preserve" font-family="CourierNewPSMT" font-size="26.0" fill="#CC1C00" transform="matrix(1.00, 0.00, -0.00, -1.00, 81.4, 288.0)">/</text><text xml:space="preserve" font-family="CourierNewPSMT" font-size="26.0" fill="#CC1C00" transform="matrix(1.00, 0.00, -0.00, -1.00, 97.0, 288.0)">l</text><text xml:space="preserve" font-family="CourierNewPSMT" font-size="26.0" fill="#CC1C00" transform="matrix(1.00, 0.00, -0.00, -1.00, 112.6, 288.0)">i</text><text xml:space="preserve" font-family="CourierNewPSMT" font-size="26.0" fill="#CC1C00" transform="matrix(1.00, 0.00, -0.00, -1.00, 128.2, 288.0)">b</text><text xml:space="preserve" font-family="CourierNewPSMT" font-size="26.0" fill="#CC1C00" transform="matrix(1.00, 0.00, -0.00, -1.00, 143.8, 288.0)">s</text><text xml:space="preserve" font-family="CourierNewPSMT" font-size="26.0" fill="#CC1C00" transform="matrix(1.00, 0.00, -0.00, -1.00, 159.4, 288.0)">/</text><text xml:space="preserve" font-family="CourierNewPSMT" font-size="26.0" fill="#CC1C00" transform="matrix(1.00, 0.00, -0.00, -1.00, 175.1, 288.0)">j</text><text xml:space="preserve" font-family="CourierNewPSMT" font-size="26.0" fill="#CC1C00" transform="matrix(1.00, 0.00, -0.00, -1.00, 190.7, 288.0)">q</text><text xml:space="preserve" font-family="CourierNewPSMT" font-size="26.0" fill="#CC1C00" transform="matrix(1.00, 0.00, -0.00, -1.00, 206.3, 288.0)">u</text><text xml:space="preserve" font-family="CourierNewPSMT" font-size="26.0" fill="#CC1C00" transform="matrix(1.00, 0.00, -0.00, -1.00, 221.9, 288.0)">e</text><text xml:space="preserve" font-family="CourierNewPSMT" font-size="26.0" fill="#CC1C00" transform="matrix(1.00, 0.00, -0.00, -1.00, 237.5, 288.0)">r</text><text xml:space="preserve" font-family="CourierNewPSMT" font-size="26.0" fill="#CC1C00" transform="matrix(1.00, 0.00, -0.00, -1.00, 253.1, 288.0)">y</text><text xml:space="preserve" font-family="CourierNewPSMT" font-size="26.0" fill="#CC1C00" transform="matrix(1.00, 0.00, -0.00, -1.00, 268.7, 288.0)">/</text><text xml:space="preserve" font-family="CourierNewPSMT" font-size="26.0" fill="#CC1C00" transform="matrix(1.00, 0.00, -0.00, -1.00, 284.3, 288.0)">1</text><text xml:space="preserve" font-family="CourierNewPSMT" font-size="26.0" fill="#CC1C00" transform="matrix(1.00, 0.00, -0.00, -1.00, 299.9, 288.0)">.</text><text xml:space="preserve" font-family="CourierNewPSMT" font-size="26.0" fill="#CC1C00" transform="matrix(1.00, 0.00, -0.00, -1.00, 315.5, 288.0)">3</text><text xml:space="preserve" font-family="CourierNewPSMT" font-size="26.0" fill="#CC1C00" transform="matrix(1.00, 0.00, -0.00, -1.00, 331.1, 288.0)">/</text><text xml:space="preserve" font-family="CourierNewPSMT" font-size="26.0" fill="#CC1C00" transform="matrix(1.00, 0.00, -0.00, -1.00, 346.7, 288.0)">j</text><text xml:space="preserve" font-family="CourierNewPSMT" font-size="26.0" fill="#CC1C00" transform="matrix(1.00, 0.00, -0.00, -1.00, 362.3, 288.0)">q</text><text xml:space="preserve" font-family="CourierNewPSMT" font-size="26.0" fill="#CC1C00" transform="matrix(1.00, 0.00, -0.00, -1.00, 377.9, 288.0)">u</text><text xml:space="preserve" font-family="CourierNewPSMT" font-size="26.0" fill="#CC1C00" transform="matrix(1.00, 0.00, -0.00, -1.00, 393.5, 288.0)">e</text><text xml:space="preserve" font-family="CourierNewPSMT" font-size="26.0" fill="#CC1C00" transform="matrix(1.00, 0.00, -0.00, -1.00, 409.1, 288.0)">r</text><text xml:space="preserve" font-family="CourierNewPSMT" font-size="26.0" fill="#CC1C00" transform="matrix(1.00, 0.00, -0.00, -1.00, 424.7, 288.0)">y</text><text xml:space="preserve" font-family="CourierNewPSMT" font-size="26.0" fill="#CC1C00" transform="matrix(1.00, 0.00, -0.00, -1.00, 440.3, 288.0)">.</text><text xml:space="preserve" font-family="CourierNewPSMT" font-size="26.0" fill="#CC1C00" transform="matrix(1.00, 0.00, -0.00, -1.00, 455.9, 288.0)">m</text><text xml:space="preserve" font-family="CourierNewPSMT" font-size="26.0" fill="#CC1C00" transform="matrix(1.00, 0.00, -0.00, -1.00, 471.5, 288.0)">i</text><text xml:space="preserve" font-family="CourierNewPSMT" font-size="26.0" fill="#CC1C00" transform="matrix(1.00, 0.00, -0.00, -1.00, 487.2, 288.0)">n</text><text xml:space="preserve" font-family="CourierNewPSMT" font-size="26.0" fill="#CC1C00" transform="matrix(1.00, 0.00, -0.00, -1.00, 502.8, 288.0)">.</text><text xml:space="preserve" font-family="CourierNewPSMT" font-size="26.0" fill="#CC1C00" transform="matrix(1.00, 0.00, -0.00, -1.00, 518.4, 288.0)">j</text><text xml:space="preserve" font-family="CourierNewPSMT" font-size="26.0" fill="#CC1C00" transform="matrix(1.00, 0.00, -0.00, -1.00, 534.0, 288.0)">s</text><text xml:space="preserve" font-family="CourierNewPSMT" font-size="26.0" fill="#CC1C00" transform="matrix(1.00, 0.00, -0.00, -1.00, 549.6, 288.0)">"</text><text xml:space="preserve" font-family="CourierNewPSMT" font-size="26.0" fill="#000000" transform="matrix(1.00, 0.00, -0.00, -1.00, 565.1, 288.0)">&gt;</text><text xml:space="preserve" font-family="CourierNewPSMT" font-size="26.0" fill="#000000" transform="matrix(1.00, 0.00, -0.00, -1.00, 580.7, 288.0)">&lt;</text><text xml:space="preserve" font-family="CourierNewPSMT" font-size="26.0" fill="#000000" transform="matrix(1.00, 0.00, -0.00, -1.00, 596.3, 288.0)">/</text><text xml:space="preserve" font-family="CourierNewPSMT" font-size="26.0" fill="#000000" transform="matrix(1.00, 0.00, -0.00, -1.00, 611.9, 288.0)">s</text><text xml:space="preserve" font-family="CourierNewPSMT" font-size="26.0" fill="#000000" transform="matrix(1.00, 0.00, -0.00, -1.00, 627.5, 288.0)">c</text><text xml:space="preserve" font-family="CourierNewPSMT" font-size="26.0" fill="#000000" transform="matrix(1.00, 0.00, -0.00, -1.00, 643.1, 288.0)">r</text><text xml:space="preserve" font-family="CourierNewPSMT" font-size="26.0" fill="#000000" transform="matrix(1.00, 0.00, -0.00, -1.00, 658.7, 288.0)">i</text><text xml:space="preserve" font-family="CourierNewPSMT" font-size="26.0" fill="#000000" transform="matrix(1.00, 0.00, -0.00, -1.00, 674.3, 288.0)">p</text><text xml:space="preserve" font-family="CourierNewPSMT" font-size="26.0" fill="#000000" transform="matrix(1.00, 0.00, -0.00, -1.00, 689.9, 288.0)">t</text><text xml:space="preserve" font-family="CourierNewPSMT" font-size="26.0" fill="#000000" transform="matrix(1.00, 0.00, -0.00, -1.00, 705.5, 288.0)">&gt;</text></g></svg>