<?xml version="1.0" encoding="UTF-8" standalone="no"?><svg xmlns="http://www.w3.org/2000/svg" xmlns:xlink="http://www.w3.org/1999/xlink" clip-rule="evenodd" stroke-miterlimit="4.00" viewBox="0 0 1024 768"><desc>SVG generated by Keynote</desc><defs></defs><g transform="matrix(1.00, 0.00, -0.00, -1.00, 0.0, 768.0)"><path d="M 0.0 768.0 L 1024.0 768.0 L 1024.0 0.0 L 0.0 0.0 Z M 0.0 768.0 " fill="#FEFFFF"></path><text xml:space="preserve" font-family="CourierNewPSMT" font-size="37.0" fill="#000000" transform="matrix(1.00, 0.00, -0.00, -1.00, 66.0, 437.0)">$</text><text xml:space="preserve" font-family="CourierNewPSMT" font-size="37.0" fill="#000000" transform="matrix(1.00, 0.00, -0.00, -1.00, 88.2, 437.0)">(</text><text xml:space="preserve" font-family="CourierNewPSMT" font-size="37.0" fill="#CC1C00" transform="matrix(1.00, 0.00, -0.00, -1.00, 110.4, 437.0)">"</text><text xml:space="preserve" font-family="CourierNewPSMT" font-size="37.0" fill="#CC1C00" transform="matrix(1.00, 0.00, -0.00, -1.00, 132.6, 437.0)">#</text><text xml:space="preserve" font-family="CourierNewPSMT" font-size="37.0" fill="#CC1C00" transform="matrix(1.00, 0.00, -0.00, -1.00, 154.8, 437.0)">y</text><text xml:space="preserve" font-family="CourierNewPSMT" font-size="37.0" fill="#CC1C00" transform="matrix(1.00, 0.00, -0.00, -1.00, 177.0, 437.0)">o</text><text xml:space="preserve" font-family="CourierNewPSMT" font-size="37.0" fill="#CC1C00" transform="matrix(1.00, 0.00, -0.00, -1.00, 199.2, 437.0)">"</text><text xml:space="preserve" font-family="CourierNewPSMT" font-size="37.0" fill="#000000" transform="matrix(1.00, 0.00, -0.00, -1.00, 221.4, 437.0)">)</text><text xml:space="preserve" font-family="CourierNewPSMT" font-size="37.0" fill="#000000" transform="matrix(1.00, 0.00, -0.00, -1.00, 243.6, 437.0)">.</text><text xml:space="preserve" font-family="CourierNewPSMT" font-size="37.0" fill="#021993" transform="matrix(1.00, 0.00, -0.00, -1.00, 265.8, 437.0)">a</text><text xml:space="preserve" font-family="CourierNewPSMT" font-size="37.0" fill="#021993" transform="matrix(1.00, 0.00, -0.00, -1.00, 288.0, 437.0)">p</text><text xml:space="preserve" font-family="CourierNewPSMT" font-size="37.0" fill="#021993" transform="matrix(1.00, 0.00, -0.00, -1.00, 310.2, 437.0)">p</text><text xml:space="preserve" font-family="CourierNewPSMT" font-size="37.0" fill="#021993" transform="matrix(1.00, 0.00, -0.00, -1.00, 332.5, 437.0)">e</text><text xml:space="preserve" font-family="CourierNewPSMT" font-size="37.0" fill="#021993" transform="matrix(1.00, 0.00, -0.00, -1.00, 354.7, 437.0)">n</text><text xml:space="preserve" font-family="CourierNewPSMT" font-size="37.0" fill="#021993" transform="matrix(1.00, 0.00, -0.00, -1.00, 376.9, 437.0)">d</text><text xml:space="preserve" font-family="CourierNewPSMT" font-size="37.0" fill="#000000" transform="matrix(1.00, 0.00, -0.00, -1.00, 399.1, 437.0)">(</text><text xml:space="preserve" font-family="CourierNewPSMT" font-size="37.0" fill="#CC1C00" transform="matrix(1.00, 0.00, -0.00, -1.00, 421.3, 437.0)">"</text><text xml:space="preserve" font-family="CourierNewPSMT" font-size="37.0" fill="#CC1C00" transform="matrix(1.00, 0.00, -0.00, -1.00, 443.5, 437.0)">h</text><text xml:space="preserve" font-family="CourierNewPSMT" font-size="37.0" fill="#CC1C00" transform="matrix(1.00, 0.00, -0.00, -1.00, 465.7, 437.0)">e</text><text xml:space="preserve" font-family="CourierNewPSMT" font-size="37.0" fill="#CC1C00" transform="matrix(1.00, 0.00, -0.00, -1.00, 487.9, 437.0)">y</text><text xml:space="preserve" font-family="CourierNewPSMT" font-size="37.0" fill="#CC1C00" transform="matrix(1.00, 0.00, -0.00, -1.00, 510.1, 437.0)"> </text><text xml:space="preserve" font-family="CourierNewPSMT" font-size="37.0" fill="#CC1C00" transform="matrix(1.00, 0.00, -0.00, -1.00, 532.3, 437.0)">h</text><text xml:space="preserve" font-family="CourierNewPSMT" font-size="37.0" fill="#CC1C00" transform="matrix(1.00, 0.00, -0.00, -1.00, 554.5, 437.0)">e</text><text xml:space="preserve" font-family="CourierNewPSMT" font-size="37.0" fill="#CC1C00" transform="matrix(1.00, 0.00, -0.00, -1.00, 576.7, 437.0)">y</text><text xml:space="preserve" font-family="CourierNewPSMT" font-size="37.0" fill="#CC1C00" transform="matrix(1.00, 0.00, -0.00, -1.00, 598.9, 437.0)"> </text><text xml:space="preserve" font-family="CourierNewPSMT" font-size="37.0" fill="#CC1C00" transform="matrix(1.00, 0.00, -0.00, -1.00, 621.1, 437.0)">h</text><text xml:space="preserve" font-family="CourierNewPSMT" font-size="37.0" fill="#CC1C00" transform="matrix(1.00, 0.00, -0.00, -1.00, 643.3, 437.0)">e</text><text xml:space="preserve" font-family="CourierNewPSMT" font-size="37.0" fill="#CC1C00" transform="matrix(1.00, 0.00, -0.00, -1.00, 665.5, 437.0)">y</text><text xml:space="preserve" font-family="CourierNewPSMT" font-size="37.0" fill="#CC1C00" transform="matrix(1.00, 0.00, -0.00, -1.00, 687.7, 437.0)"> </text><text xml:space="preserve" font-family="CourierNewPSMT" font-size="37.0" fill="#CC1C00" transform="matrix(1.00, 0.00, -0.00, -1.00, 710.0, 437.0)">h</text><text xml:space="preserve" font-family="CourierNewPSMT" font-size="37.0" fill="#CC1C00" transform="matrix(1.00, 0.00, -0.00, -1.00, 732.2, 437.0)">e</text><text xml:space="preserve" font-family="CourierNewPSMT" font-size="37.0" fill="#CC1C00" transform="matrix(1.00, 0.00, -0.00, -1.00, 754.4, 437.0)">y</text><text xml:space="preserve" font-family="CourierNewPSMT" font-size="37.0" fill="#CC1C00" transform="matrix(1.00, 0.00, -0.00, -1.00, 776.6, 437.0)">!</text><text xml:space="preserve" font-family="CourierNewPSMT" font-size="37.0" fill="#CC1C00" transform="matrix(1.00, 0.00, -0.00, -1.00, 798.8, 437.0)">!</text><text xml:space="preserve" font-family="CourierNewPSMT" font-size="37.0" fill="#CC1C00" transform="matrix(1.00, 0.00, -0.00, -1.00, 821.0, 437.0)">!</text><text xml:space="preserve" font-family="CourierNewPSMT" font-size="37.0" fill="#CC1C00" transform="matrix(1.00, 0.00, -0.00, -1.00, 843.2, 437.0)">!</text><text xml:space="preserve" font-family="CourierNewPSMT" font-size="37.0" fill="#CC1C00" transform="matrix(1.00, 0.00, -0.00, -1.00, 865.4, 437.0)">!</text><text xml:space="preserve" font-family="CourierNewPSMT" font-size="37.0" fill="#CC1C00" transform="matrix(1.00, 0.00, -0.00, -1.00, 887.6, 437.0)">"</text><text xml:space="preserve" font-family="CourierNewPSMT" font-size="37.0" fill="#000000" transform="matrix(1.00, 0.00, -0.00, -1.00, 909.7, 437.0)">)</text><text xml:space="preserve" font-family="CourierNewPSMT" font-size="37.0" fill="#000000" transform="matrix(1.00, 0.00, -0.00, -1.00, 931.9, 437.0)">;</text><text xml:space="preserve" font-family="CourierNewPSMT" font-size="37.0" fill="#000000" transform="matrix(1.00, 0.00, -0.00, -1.00, 954.1, 437.0)"> </text><text xml:space="preserve" font-family="CourierNewPSMT" font-size="37.0" fill="#000000" transform="matrix(1.00, 0.00, -0.00, -1.00, 66.0, 353.0)">/</text><text xml:space="preserve" font-family="CourierNewPSMT" font-size="37.0" fill="#000000" transform="matrix(1.00, 0.00, -0.00, -1.00, 88.2, 353.0)">/</text><text xml:space="preserve" font-family="CourierNewPSMT" font-size="37.0" fill="#000000" transform="matrix(1.00, 0.00, -0.00, -1.00, 110.4, 353.0)"> </text><text xml:space="preserve" font-family="CourierNewPSMT" font-size="37.0" fill="#000000" transform="matrix(1.00, 0.00, -0.00, -1.00, 132.6, 353.0)">j</text><text xml:space="preserve" font-family="CourierNewPSMT" font-size="37.0" fill="#000000" transform="matrix(1.00, 0.00, -0.00, -1.00, 154.8, 353.0)">Q</text><text xml:space="preserve" font-family="CourierNewPSMT" font-size="37.0" fill="#000000" transform="matrix(1.00, 0.00, -0.00, -1.00, 177.0, 353.0)">u</text><text xml:space="preserve" font-family="CourierNewPSMT" font-size="37.0" fill="#000000" transform="matrix(1.00, 0.00, -0.00, -1.00, 199.2, 353.0)">e</text><text xml:space="preserve" font-family="CourierNewPSMT" font-size="37.0" fill="#000000" transform="matrix(1.00, 0.00, -0.00, -1.00, 221.5, 353.0)">r</text><text xml:space="preserve" font-family="CourierNewPSMT" font-size="37.0" fill="#000000" transform="matrix(1.00, 0.00, -0.00, -1.00, 243.7, 353.0)">y</text><text xml:space="preserve" font-family="CourierNewPSMT" font-size="37.0" fill="#000000" transform="matrix(1.00, 0.00, -0.00, -1.00, 265.9, 353.0)">.</text><text xml:space="preserve" font-family="CourierNewPSMT" font-size="37.0" fill="#000000" transform="matrix(1.00, 0.00, -0.00, -1.00, 288.1, 353.0)">s</text><text xml:space="preserve" font-family="CourierNewPSMT" font-size="37.0" fill="#000000" transform="matrix(1.00, 0.00, -0.00, -1.00, 310.3, 353.0)">e</text><text xml:space="preserve" font-family="CourierNewPSMT" font-size="37.0" fill="#000000" transform="matrix(1.00, 0.00, -0.00, -1.00, 332.5, 353.0)">l</text><text xml:space="preserve" font-family="CourierNewPSMT" font-size="37.0" fill="#000000" transform="matrix(1.00, 0.00, -0.00, -1.00, 354.7, 353.0)">e</text><text xml:space="preserve" font-family="CourierNewPSMT" font-size="37.0" fill="#000000" transform="matrix(1.00, 0.00, -0.00, -1.00, 376.9, 353.0)">c</text><text xml:space="preserve" font-family="CourierNewPSMT" font-size="37.0" fill="#000000" transform="matrix(1.00, 0.00, -0.00, -1.00, 399.1, 353.0)">t</text><text xml:space="preserve" font-family="CourierNewPSMT" font-size="37.0" fill="#000000" transform="matrix(1.00, 0.00, -0.00, -1.00, 421.3, 353.0)">o</text><text xml:space="preserve" font-family="CourierNewPSMT" font-size="37.0" fill="#000000" transform="matrix(1.00, 0.00, -0.00, -1.00, 443.5, 353.0)">r</text><text xml:space="preserve" font-family="CourierNewPSMT" font-size="37.0" fill="#000000" transform="matrix(1.00, 0.00, -0.00, -1.00, 465.7, 353.0)">.</text><text xml:space="preserve" font-family="CourierNewPSMT" font-size="37.0" fill="#000000" transform="matrix(1.00, 0.00, -0.00, -1.00, 487.9, 353.0)">f</text><text xml:space="preserve" font-family="CourierNewPSMT" font-size="37.0" fill="#000000" transform="matrix(1.00, 0.00, -0.00, -1.00, 510.1, 353.0)">u</text><text xml:space="preserve" font-family="CourierNewPSMT" font-size="37.0" fill="#000000" transform="matrix(1.00, 0.00, -0.00, -1.00, 532.4, 353.0)">n</text><text xml:space="preserve" font-family="CourierNewPSMT" font-size="37.0" fill="#000000" transform="matrix(1.00, 0.00, -0.00, -1.00, 554.6, 353.0)">c</text><text xml:space="preserve" font-family="CourierNewPSMT" font-size="37.0" fill="#000000" transform="matrix(1.00, 0.00, -0.00, -1.00, 576.8, 353.0)">t</text><text xml:space="preserve" font-family="CourierNewPSMT" font-size="37.0" fill="#000000" transform="matrix(1.00, 0.00, -0.00, -1.00, 599.0, 353.0)">i</text><text xml:space="preserve" font-family="CourierNewPSMT" font-size="37.0" fill="#000000" transform="matrix(1.00, 0.00, -0.00, -1.00, 621.2, 353.0)">o</text><text xml:space="preserve" font-family="CourierNewPSMT" font-size="37.0" fill="#000000" transform="matrix(1.00, 0.00, -0.00, -1.00, 643.4, 353.0)">n</text><text xml:space="preserve" font-family="CourierNewPSMT" font-size="37.0" fill="#000000" transform="matrix(1.00, 0.00, -0.00, -1.00, 665.6, 353.0)">(</text><text xml:space="preserve" font-family="CourierNewPSMT" font-size="37.0" fill="#000000" transform="matrix(1.00, 0.00, -0.00, -1.00, 687.8, 353.0)">a</text><text xml:space="preserve" font-family="CourierNewPSMT" font-size="37.0" fill="#000000" transform="matrix(1.00, 0.00, -0.00, -1.00, 710.0, 353.0)">r</text><text xml:space="preserve" font-family="CourierNewPSMT" font-size="37.0" fill="#000000" transform="matrix(1.00, 0.00, -0.00, -1.00, 732.2, 353.0)">g</text><text xml:space="preserve" font-family="CourierNewPSMT" font-size="37.0" fill="#000000" transform="matrix(1.00, 0.00, -0.00, -1.00, 754.4, 353.0)">u</text><text xml:space="preserve" font-family="CourierNewPSMT" font-size="37.0" fill="#000000" transform="matrix(1.00, 0.00, -0.00, -1.00, 776.6, 353.0)">m</text><text xml:space="preserve" font-family="CourierNewPSMT" font-size="37.0" fill="#000000" transform="matrix(1.00, 0.00, -0.00, -1.00, 798.8, 353.0)">e</text><text xml:space="preserve" font-family="CourierNewPSMT" font-size="37.0" fill="#000000" transform="matrix(1.00, 0.00, -0.00, -1.00, 821.0, 353.0)">n</text><text xml:space="preserve" font-family="CourierNewPSMT" font-size="37.0" fill="#000000" transform="matrix(1.00, 0.00, -0.00, -1.00, 843.3, 353.0)">t</text><text xml:space="preserve" font-family="CourierNewPSMT" font-size="37.0" fill="#000000" transform="matrix(1.00, 0.00, -0.00, -1.00, 865.5, 353.0)">)</text><text xml:space="preserve" font-family="CourierNewPSMT" font-size="37.0" fill="#000000" transform="matrix(1.00, 0.00, -0.00, -1.00, 887.5, 353.0)"> </text></g></svg>