<?xml version="1.0" encoding="UTF-8" standalone="no"?><svg xmlns="http://www.w3.org/2000/svg" xmlns:xlink="http://www.w3.org/1999/xlink" clip-rule="evenodd" stroke-miterlimit="4.00" viewBox="0 0 1024 768"><desc>SVG generated by Keynote</desc><defs></defs><g transform="matrix(1.00, 0.00, -0.00, -1.00, 0.0, 768.0)"><path d="M 0.0 768.0 L 1024.0 768.0 L 1024.0 0.0 L 0.0 0.0 Z M 0.0 768.0 " fill="#FEFFFF"></path><text xml:space="preserve" font-family="Helvetica-Light" font-size="80.0" fill="#000000" transform="matrix(1.00, 0.00, -0.00, -1.00, 254.0, 618.0)">C</text><text xml:space="preserve" font-family="Helvetica-Light" font-size="80.0" fill="#000000" transform="matrix(1.00, 0.00, -0.00, -1.00, 311.8, 618.0)">l</text><text xml:space="preserve" font-family="Helvetica-Light" font-size="80.0" fill="#000000" transform="matrix(1.00, 0.00, -0.00, -1.00, 329.5, 618.0)">a</text><text xml:space="preserve" font-family="Helvetica-Light" font-size="80.0" fill="#000000" transform="matrix(1.00, 0.00, -0.00, -1.00, 374.0, 618.0)">s</text><text xml:space="preserve" font-family="Helvetica-Light" font-size="80.0" fill="#000000" transform="matrix(1.00, 0.00, -0.00, -1.00, 414.0, 618.0)">s</text><text xml:space="preserve" font-family="Helvetica-Light" font-size="80.0" fill="#000000" transform="matrix(1.00, 0.00, -0.00, -1.00, 454.0, 618.0)"> </text><text xml:space="preserve" font-family="Helvetica-Light" font-size="80.0" fill="#000000" transform="matrix(1.00, 0.00, -0.00, -1.00, 476.2, 618.0)">S</text><text xml:space="preserve" font-family="Helvetica-Light" font-size="80.0" fill="#000000" transform="matrix(1.00, 0.00, -0.00, -1.00, 525.1, 618.0)">e</text><text xml:space="preserve" font-family="Helvetica-Light" font-size="80.0" fill="#000000" transform="matrix(1.00, 0.00, -0.00, -1.00, 569.6, 618.0)">l</text><text xml:space="preserve" font-family="Helvetica-Light" font-size="80.0" fill="#000000" transform="matrix(1.00, 0.00, -0.00, -1.00, 587.4, 618.0)">e</text><text xml:space="preserve" font-family="Helvetica-Light" font-size="80.0" fill="#000000" transform="matrix(1.00, 0.00, -0.00, -1.00, 631.8, 618.0)">c</text><text xml:space="preserve" font-family="Helvetica-Light" font-size="80.0" fill="#000000" transform="matrix(1.00, 0.00, -0.00, -1.00, 676.3, 618.0)">t</text><text xml:space="preserve" font-family="Helvetica-Light" font-size="80.0" fill="#000000" transform="matrix(1.00, 0.00, -0.00, -1.00, 698.6, 618.0)">o</text><text xml:space="preserve" font-family="Helvetica-Light" font-size="80.0" fill="#000000" transform="matrix(1.00, 0.00, -0.00, -1.00, 743.0, 618.0)">r</text><text xml:space="preserve" font-family="CourierNewPSMT" font-size="64.0" fill="#000000" transform="matrix(1.00, 0.00, -0.00, -1.00, 320.0, 334.0)">$</text><text xml:space="preserve" font-family="CourierNewPSMT" font-size="64.0" fill="#000000" transform="matrix(1.00, 0.00, -0.00, -1.00, 358.4, 334.0)">(</text><text xml:space="preserve" font-family="CourierNewPSMT" font-size="64.0" fill="#CC1C00" transform="matrix(1.00, 0.00, -0.00, -1.00, 396.8, 334.0)">'</text><text xml:space="preserve" font-family="CourierNewPSMT" font-size="64.0" fill="#CC1C00" transform="matrix(1.00, 0.00, -0.00, -1.00, 435.2, 334.0)">.</text><text xml:space="preserve" font-family="CourierNewPSMT" font-size="64.0" fill="#CC1C00" transform="matrix(1.00, 0.00, -0.00, -1.00, 473.6, 334.0)">p</text><text xml:space="preserve" font-family="CourierNewPSMT" font-size="64.0" fill="#CC1C00" transform="matrix(1.00, 0.00, -0.00, -1.00, 512.1, 334.0)">i</text><text xml:space="preserve" font-family="CourierNewPSMT" font-size="64.0" fill="#CC1C00" transform="matrix(1.00, 0.00, -0.00, -1.00, 550.5, 334.0)">c</text><text xml:space="preserve" font-family="CourierNewPSMT" font-size="64.0" fill="#CC1C00" transform="matrix(1.00, 0.00, -0.00, -1.00, 588.9, 334.0)">s</text><text xml:space="preserve" font-family="CourierNewPSMT" font-size="64.0" fill="#CC1C00" transform="matrix(1.00, 0.00, -0.00, -1.00, 627.3, 334.0)">'</text><text xml:space="preserve" font-family="CourierNewPSMT" font-size="64.0" fill="#000000" transform="matrix(1.00, 0.00, -0.00, -1.00, 665.7, 334.0)">)</text><text xml:space="preserve" font-family="CourierNewPSMT" font-size="64.0" fill="#000000" transform="matrix(1.00, 0.00, -0.00, -1.00, 704.1, 334.0)"> </text></g></svg>