<?xml version="1.0" encoding="UTF-8" standalone="no"?><svg xmlns="http://www.w3.org/2000/svg" xmlns:xlink="http://www.w3.org/1999/xlink" clip-rule="evenodd" stroke-miterlimit="4.00" viewBox="0 0 1024 768"><desc>SVG generated by Keynote</desc><defs></defs><g transform="matrix(1.00, 0.00, -0.00, -1.00, 0.0, 768.0)"><path d="M 0.0 768.0 L 1024.0 768.0 L 1024.0 0.0 L 0.0 0.0 Z M 0.0 768.0 " fill="#FEFFFF"></path><text xml:space="preserve" font-family="Helvetica-Light" font-size="80.0" fill="#000000" transform="matrix(1.00, 0.00, -0.00, -1.00, 314.0, 618.0)">I</text><text xml:space="preserve" font-family="Helvetica-Light" font-size="80.0" fill="#000000" transform="matrix(1.00, 0.00, -0.00, -1.00, 336.2, 618.0)">D</text><text xml:space="preserve" font-family="Helvetica-Light" font-size="80.0" fill="#000000" transform="matrix(1.00, 0.00, -0.00, -1.00, 394.0, 618.0)"> </text><text xml:space="preserve" font-family="Helvetica-Light" font-size="80.0" fill="#000000" transform="matrix(1.00, 0.00, -0.00, -1.00, 416.2, 618.0)">S</text><text xml:space="preserve" font-family="Helvetica-Light" font-size="80.0" fill="#000000" transform="matrix(1.00, 0.00, -0.00, -1.00, 465.1, 618.0)">e</text><text xml:space="preserve" font-family="Helvetica-Light" font-size="80.0" fill="#000000" transform="matrix(1.00, 0.00, -0.00, -1.00, 509.6, 618.0)">l</text><text xml:space="preserve" font-family="Helvetica-Light" font-size="80.0" fill="#000000" transform="matrix(1.00, 0.00, -0.00, -1.00, 527.4, 618.0)">e</text><text xml:space="preserve" font-family="Helvetica-Light" font-size="80.0" fill="#000000" transform="matrix(1.00, 0.00, -0.00, -1.00, 571.8, 618.0)">c</text><text xml:space="preserve" font-family="Helvetica-Light" font-size="80.0" fill="#000000" transform="matrix(1.00, 0.00, -0.00, -1.00, 616.3, 618.0)">t</text><text xml:space="preserve" font-family="Helvetica-Light" font-size="80.0" fill="#000000" transform="matrix(1.00, 0.00, -0.00, -1.00, 638.6, 618.0)">o</text><text xml:space="preserve" font-family="Helvetica-Light" font-size="80.0" fill="#000000" transform="matrix(1.00, 0.00, -0.00, -1.00, 683.0, 618.0)">r</text><text xml:space="preserve" font-family="CourierNewPSMT" font-size="64.0" fill="#000000" transform="matrix(1.00, 0.00, -0.00, -1.00, 205.0, 403.0)">$</text><text xml:space="preserve" font-family="CourierNewPSMT" font-size="64.0" fill="#000000" transform="matrix(1.00, 0.00, -0.00, -1.00, 243.4, 403.0)">(</text><text xml:space="preserve" font-family="CourierNewPSMT" font-size="64.0" fill="#CC1C00" transform="matrix(1.00, 0.00, -0.00, -1.00, 281.8, 403.0)">‘</text><text xml:space="preserve" font-family="CourierNewPSMT" font-size="64.0" fill="#CC1C00" transform="matrix(1.00, 0.00, -0.00, -1.00, 320.2, 403.0)">#</text><text xml:space="preserve" font-family="CourierNewPSMT" font-size="64.0" fill="#CC1C00" transform="matrix(1.00, 0.00, -0.00, -1.00, 358.6, 403.0)">b</text><text xml:space="preserve" font-family="CourierNewPSMT" font-size="64.0" fill="#CC1C00" transform="matrix(1.00, 0.00, -0.00, -1.00, 397.1, 403.0)">a</text><text xml:space="preserve" font-family="CourierNewPSMT" font-size="64.0" fill="#CC1C00" transform="matrix(1.00, 0.00, -0.00, -1.00, 435.5, 403.0)">b</text><text xml:space="preserve" font-family="CourierNewPSMT" font-size="64.0" fill="#CC1C00" transform="matrix(1.00, 0.00, -0.00, -1.00, 473.9, 403.0)">y</text><text xml:space="preserve" font-family="CourierNewPSMT" font-size="64.0" fill="#CC1C00" transform="matrix(1.00, 0.00, -0.00, -1.00, 512.3, 403.0)">-</text><text xml:space="preserve" font-family="CourierNewPSMT" font-size="64.0" fill="#CC1C00" transform="matrix(1.00, 0.00, -0.00, -1.00, 550.7, 403.0)">n</text><text xml:space="preserve" font-family="CourierNewPSMT" font-size="64.0" fill="#CC1C00" transform="matrix(1.00, 0.00, -0.00, -1.00, 589.1, 403.0)">i</text><text xml:space="preserve" font-family="CourierNewPSMT" font-size="64.0" fill="#CC1C00" transform="matrix(1.00, 0.00, -0.00, -1.00, 627.5, 403.0)">n</text><text xml:space="preserve" font-family="CourierNewPSMT" font-size="64.0" fill="#CC1C00" transform="matrix(1.00, 0.00, -0.00, -1.00, 665.9, 403.0)">j</text><text xml:space="preserve" font-family="CourierNewPSMT" font-size="64.0" fill="#CC1C00" transform="matrix(1.00, 0.00, -0.00, -1.00, 704.4, 403.0)">a</text><text xml:space="preserve" font-family="CourierNewPSMT" font-size="64.0" fill="#CC1C00" transform="matrix(1.00, 0.00, -0.00, -1.00, 742.8, 403.0)">‘</text><text xml:space="preserve" font-family="CourierNewPSMT" font-size="64.0" fill="#000000" transform="matrix(1.00, 0.00, -0.00, -1.00, 781.1, 403.0)">)</text><text xml:space="preserve" font-family="CourierNewPSMT" font-size="64.0" fill="#000000" transform="matrix(1.00, 0.00, -0.00, -1.00, 819.5, 403.0)"> </text></g></svg>