<?xml version="1.0" encoding="UTF-8" standalone="no"?><svg xmlns="http://www.w3.org/2000/svg" xmlns:xlink="http://www.w3.org/1999/xlink" clip-rule="evenodd" stroke-miterlimit="4.00" viewBox="0 0 1024 768"><desc>SVG generated by Keynote</desc><defs></defs><g transform="matrix(1.00, 0.00, -0.00, -1.00, 0.0, 768.0)"><path d="M 0.0 768.0 L 1024.0 768.0 L 1024.0 0.0 L 0.0 0.0 Z M 0.0 768.0 " fill="#FEFFFF"></path><text xml:space="preserve" font-family="Helvetica-Light" font-size="80.0" fill="#000000" transform="matrix(1.00, 0.00, -0.00, -1.00, 136.0, 618.0)">D</text><text xml:space="preserve" font-family="Helvetica-Light" font-size="80.0" fill="#000000" transform="matrix(1.00, 0.00, -0.00, -1.00, 193.8, 618.0)">e</text><text xml:space="preserve" font-family="Helvetica-Light" font-size="80.0" fill="#000000" transform="matrix(1.00, 0.00, -0.00, -1.00, 238.2, 618.0)">s</text><text xml:space="preserve" font-family="Helvetica-Light" font-size="80.0" fill="#000000" transform="matrix(1.00, 0.00, -0.00, -1.00, 278.2, 618.0)">c</text><text xml:space="preserve" font-family="Helvetica-Light" font-size="80.0" fill="#000000" transform="matrix(1.00, 0.00, -0.00, -1.00, 322.7, 618.0)">e</text><text xml:space="preserve" font-family="Helvetica-Light" font-size="80.0" fill="#000000" transform="matrix(1.00, 0.00, -0.00, -1.00, 367.2, 618.0)">n</text><text xml:space="preserve" font-family="Helvetica-Light" font-size="80.0" fill="#000000" transform="matrix(1.00, 0.00, -0.00, -1.00, 411.7, 618.0)">d</text><text xml:space="preserve" font-family="Helvetica-Light" font-size="80.0" fill="#000000" transform="matrix(1.00, 0.00, -0.00, -1.00, 460.6, 618.0)">a</text><text xml:space="preserve" font-family="Helvetica-Light" font-size="80.0" fill="#000000" transform="matrix(1.00, 0.00, -0.00, -1.00, 505.0, 618.0)">n</text><text xml:space="preserve" font-family="Helvetica-Light" font-size="80.0" fill="#000000" transform="matrix(1.00, 0.00, -0.00, -1.00, 549.5, 618.0)">t</text><text xml:space="preserve" font-family="Helvetica-Light" font-size="80.0" fill="#000000" transform="matrix(1.00, 0.00, -0.00, -1.00, 571.8, 618.0)"> </text><text xml:space="preserve" font-family="Helvetica-Light" font-size="80.0" fill="#000000" transform="matrix(1.00, 0.00, -0.00, -1.00, 594.0, 618.0)">S</text><text xml:space="preserve" font-family="Helvetica-Light" font-size="80.0" fill="#000000" transform="matrix(1.00, 0.00, -0.00, -1.00, 642.9, 618.0)">e</text><text xml:space="preserve" font-family="Helvetica-Light" font-size="80.0" fill="#000000" transform="matrix(1.00, 0.00, -0.00, -1.00, 687.4, 618.0)">l</text><text xml:space="preserve" font-family="Helvetica-Light" font-size="80.0" fill="#000000" transform="matrix(1.00, 0.00, -0.00, -1.00, 705.1, 618.0)">e</text><text xml:space="preserve" font-family="Helvetica-Light" font-size="80.0" fill="#000000" transform="matrix(1.00, 0.00, -0.00, -1.00, 749.6, 618.0)">c</text><text xml:space="preserve" font-family="Helvetica-Light" font-size="80.0" fill="#000000" transform="matrix(1.00, 0.00, -0.00, -1.00, 794.1, 618.0)">t</text><text xml:space="preserve" font-family="Helvetica-Light" font-size="80.0" fill="#000000" transform="matrix(1.00, 0.00, -0.00, -1.00, 816.3, 618.0)">o</text><text xml:space="preserve" font-family="Helvetica-Light" font-size="80.0" fill="#000000" transform="matrix(1.00, 0.00, -0.00, -1.00, 860.8, 618.0)">r</text><text xml:space="preserve" font-family="CourierNewPSMT" font-size="64.0" fill="#000000" transform="matrix(1.00, 0.00, -0.00, -1.00, 320.0, 403.0)">$</text><text xml:space="preserve" font-family="CourierNewPSMT" font-size="64.0" fill="#000000" transform="matrix(1.00, 0.00, -0.00, -1.00, 358.4, 403.0)">(</text><text xml:space="preserve" font-family="CourierNewPSMT" font-size="64.0" fill="#CC1C00" transform="matrix(1.00, 0.00, -0.00, -1.00, 396.8, 403.0)">‘</text><text xml:space="preserve" font-family="CourierNewPSMT" font-size="64.0" fill="#CC1C00" transform="matrix(1.00, 0.00, -0.00, -1.00, 435.2, 403.0)">u</text><text xml:space="preserve" font-family="CourierNewPSMT" font-size="64.0" fill="#CC1C00" transform="matrix(1.00, 0.00, -0.00, -1.00, 473.6, 403.0)">l</text><text xml:space="preserve" font-family="CourierNewPSMT" font-size="64.0" fill="#CC1C00" transform="matrix(1.00, 0.00, -0.00, -1.00, 512.1, 403.0)"> </text><text xml:space="preserve" font-family="CourierNewPSMT" font-size="64.0" fill="#CC1C00" transform="matrix(1.00, 0.00, -0.00, -1.00, 550.5, 403.0)">l</text><text xml:space="preserve" font-family="CourierNewPSMT" font-size="64.0" fill="#CC1C00" transform="matrix(1.00, 0.00, -0.00, -1.00, 588.9, 403.0)">i</text><text xml:space="preserve" font-family="CourierNewPSMT" font-size="64.0" fill="#CC1C00" transform="matrix(1.00, 0.00, -0.00, -1.00, 627.3, 403.0)">'</text><text xml:space="preserve" font-family="CourierNewPSMT" font-size="64.0" fill="#000000" transform="matrix(1.00, 0.00, -0.00, -1.00, 665.7, 403.0)">)</text><text xml:space="preserve" font-family="CourierNewPSMT" font-size="64.0" fill="#000000" transform="matrix(1.00, 0.00, -0.00, -1.00, 704.1, 403.0)"> </text></g></svg>